<?xml version="1.0" encoding="UTF-8"?>
<svg width="40px" height="40px" viewBox="0 0 40 40" version="1.1" xmlns="http://www.w3.org/2000/svg" xmlns:xlink="http://www.w3.org/1999/xlink">
    <!-- Generator: Sketch 44.1 (41455) - http://www.bohemiancoding.com/sketch -->
    <title>Untitled 2</title>
    <desc>Created with Sketch.</desc>
    <defs></defs>
    <g id="Page-1" stroke="none" stroke-width="1" fill="none" fill-rule="evenodd">
        <g id="rwzi" fill-rule="nonzero">
            <path d="M20,40 C31.0456956,40 40,31.0456956 40,20 C40,8.95430444 31.0456956,0 20,0 C8.95430444,0 0,8.95430444 0,20 C0,31.0456956 8.95430444,40 20,40 Z" id="Oval-3" fill="#000000"></path>
            <path d="M19.7530864,34.5679012 C27.9350831,34.5679012 34.5679012,27.9350831 34.5679012,19.7530864 C34.5679012,11.5710897 27.9350831,4.9382716 19.7530864,4.9382716 C11.5710897,4.9382716 4.9382716,11.5710897 4.9382716,19.7530864 C4.9382716,27.9350831 11.5710897,34.5679012 19.7530864,34.5679012 Z" id="Oval-4" stroke="#979797" fill="#FFFFFF"></path>
            <path d="M19.7530864,23.2098765 C21.662219,23.2098765 23.2098765,21.662219 23.2098765,19.7530864 C23.2098765,17.8439539 21.662219,16.2962963 19.7530864,16.2962963 C17.8439539,16.2962963 16.2962963,17.8439539 16.2962963,19.7530864 C16.2962963,21.662219 17.8439539,23.2098765 19.7530864,23.2098765 Z" id="Oval-4" fill="#000000"></path>
            <polygon id="Path-1" fill="#000000" points="17.1120274 21.5760031 29.1893325 32.4452643 32.9812886 28.2600309 21.7071759 16.8991126"></polygon>
        </g>
    </g>
</svg>